<svg width="32" height="32" viewBox="0 0 32 32" fill="none" xmlns="http://www.w3.org/2000/svg">
<path d="M23.9999 14.8572H7.99995C6.73758 14.8572 5.71423 15.8805 5.71423 17.1429V25.1429C5.71423 26.4053 6.73758 27.4286 7.99995 27.4286H23.9999C25.2623 27.4286 26.2857 26.4053 26.2857 25.1429V17.1429C26.2857 15.8805 25.2623 14.8572 23.9999 14.8572Z" stroke="#787885" stroke-width="2" stroke-linecap="round" stroke-linejoin="round"/>
<path d="M10.2858 14.8571V10.2857C10.2858 8.77017 10.8878 7.31672 11.9594 6.24509C13.0311 5.17345 14.4845 4.57141 16.0001 4.57141C17.5156 4.57141 18.969 5.17345 20.0407 6.24509C21.1123 7.31672 21.7143 8.77017 21.7143 10.2857V14.8571" stroke="#787885" stroke-width="2" stroke-linecap="round" stroke-linejoin="round"/>
</svg>
